<svg xmlns="http://www.w3.org/2000/svg" viewBox="0 0 32 32" fill="none">
  <defs>
    <linearGradient id="g" x1="6" y1="4" x2="26" y2="28" gradientUnits="userSpaceOnUse">
      <stop stop-color="#2d9b75"/>
      <stop offset="0.55" stop-color="#1a7556"/>
      <stop offset="1" stop-color="#0e4d38"/>
    </linearGradient>
  </defs>
  <rect x="1" y="1" width="30" height="30" rx="8" fill="url(#g)"/>
  <path d="M16 7c-4 0-7 3-7 7.5 0 3 1.5 5.5 4 7-2 1.2-3 3.5-3 6 0 4.2 3.2 7.5 6 7.5s6-3.3 6-7.5c0-2.5-1-4.8-3-6 2.5-2 4-4 4-7C23 10 20 7 16 7z" stroke="white" stroke-width="1.2" stroke-linecap="round" stroke-linejoin="round" fill="white" fill-opacity="0.15"/>
  <circle cx="16" cy="15" r="1.5" fill="white"/>
</svg>